<?xml version="1.0" encoding="UTF-8"?>
<!DOCTYPE svg PUBLIC "-//W3C//DTD SVG 1.1//EN" "http://www.w3.org/Graphics/SVG/1.1/DTD/svg11.dtd">
<!-- Creator: CorelDRAW (Versão de avaliação) -->
<svg xmlns="http://www.w3.org/2000/svg" xml:space="preserve" width="941px" height="951px" version="1.1" style="shape-rendering:geometricPrecision; text-rendering:geometricPrecision; image-rendering:optimizeQuality; fill-rule:evenodd; clip-rule:evenodd"
viewBox="0 0 631.48 638.16"
 xmlns:xlink="http://www.w3.org/1999/xlink"
 xmlns:xodm="http://www.corel.com/coreldraw/odm/2003">
 <defs>
  <style type="text/css">
   <![CDATA[
    .fil0 {fill:#3F2B56}
    .fil1 {fill:#F69B00}
   ]]>
  </style>
 </defs>
 <g id="Camada_x0020_1">
  <metadata id="CorelCorpID_0Corel-Layer"/>
  <path class="fil0" d="M315.74 0c174.38,0 315.74,142.86 315.74,319.08 0,176.23 -141.36,319.08 -315.74,319.08 -174.38,0 -315.74,-142.85 -315.74,-319.08 0,-176.22 141.36,-319.08 315.74,-319.08zm-1.17 42c149.69,0 271.05,122.76 271.05,274.2 0,151.43 -121.36,274.2 -271.05,274.2 -149.7,0 -271.06,-122.77 -271.06,-274.2 0,-151.44 121.36,-274.2 271.06,-274.2z"/>
  <path class="fil0" d="M355.6 128.9c87.77,18.39 153.69,96.46 153.69,189.99 0,93.53 -65.92,171.6 -153.69,189.98l0 -54.07c60.52,-17.29 104.77,-72.37 104.77,-137.67 0,-65.29 -44.25,-120.38 -104.77,-137.66l0 -50.57zm-75.95 380.66c-89.5,-17.02 -157.18,-95.91 -157.18,-190.67 0,-94.77 67.68,-173.66 157.18,-190.68l0 49.95c-63.03,15.63 -109.7,71.92 -109.7,138.97 0,67.05 46.67,123.34 109.7,138.98l0 53.45z"/>
  <ellipse class="fil1" cx="314.57" cy="316.2" rx="45.28" ry="41.93"/>
 </g>
</svg>
